<?xml version="1.0" encoding="UTF-8" standalone="no"?>
<svg
   xmlns:dc="http://purl.org/dc/elements/1.1/"
   xmlns:cc="http://creativecommons.org/ns#"
   xmlns:rdf="http://www.w3.org/1999/02/22-rdf-syntax-ns#"
   xmlns:svg="http://www.w3.org/2000/svg"
   xmlns="http://www.w3.org/2000/svg"
   id="svg89"
   xml:space="preserve"
   viewBox="0 0 1102.7804 439.2114"
   height="439.2114"
   width="1102.7804"
   version="1.1"><metadata
   id="metadata93"><rdf:RDF><cc:Work
       rdf:about=""><dc:format>image/svg+xml</dc:format><dc:type
         rdf:resource="http://purl.org/dc/dcmitype/StillImage" /></cc:Work></rdf:RDF></metadata>
<desc
   id="desc2">Created with Fabric.js 3.2.0</desc>
<defs
   id="defs4" />
<g
   id="6d91-54a7"
   transform="matrix(5.58,0,0,5.58,552.86801,378.053)">
		<g
   id="text8"
   style="font-style:normal;font-weight:normal;font-size:20px;font-family:'Abril Fatface';white-space:pre;opacity:1;fill:#000000;fill-rule:nonzero;stroke:none;stroke-width:1;stroke-linecap:butt;stroke-linejoin:miter;stroke-miterlimit:4;stroke-dasharray:none;stroke-dashoffset:0"
   aria-label="P.M.P. STAVBY S.R.O."><path
     id="path95"
     d="m -94.600002,-7.7199998 h 5.88 q 3.02,0 4.5,0.88 1.48,0.86 1.48,3.1 0,2.48 -1.8,3.42000001 -1.68,0.86 -4.7,0.86 h -0.16 V 5.9000002 h 2.5 v 0.38 h -7.7 v -0.38 h 1.3 v -13.24 h -1.3 z m 5.2,0.38 v 7.50000001 h 0.42 q 1.2,0 1.66,-0.82 0.46,-0.82000001 0.46,-2.66000001 v -0.96 q 0,-1.7 -0.44,-2.38 -0.42,-0.68 -1.56,-0.68 z" /><path
     id="path97"
     d="m -81.772189,6.4800002 q -0.86,0 -1.3,-0.5 -0.42,-0.52 -0.42,-1.24 0,-0.74 0.44,-1.24 0.46,-0.5 1.28,-0.5 0.82,0 1.3,0.42 0.48,0.42 0.48,1.26 0,0.84 -0.46,1.32 -0.44,0.48 -1.32,0.48 z" /><path
     id="path99"
     d="m -68.119689,-7.7199998 h 5.34 v 0.38 h -1.1 v 13.24 h 1.1 v 0.38 h -6.1 v -0.38 h 1.1 v -12.5 h -0.08 l -3,12.88 h -2.5 l -3.52,-12.94 h -0.08 v 12.56 h 1.1 v 0.38 h -2.72 v -0.38 h 1.1 v -13.24 h -1.1 v -0.38 h 5.4 l 2.66,10.3 z" /><path
     id="path101"
     d="m -59.662814,6.4800002 q -0.86,0 -1.3,-0.5 -0.42,-0.52 -0.42,-1.24 0,-0.74 0.44,-1.24 0.46,-0.5 1.28,-0.5 0.82,0 1.3,0.42 0.48,0.42 0.48,1.26 0,0.84 -0.46,1.32 -0.44,0.48 -1.32,0.48 z" /><path
     id="path103"
     d="m -56.670314,-7.7199998 h 5.88 q 3.02,0 4.5,0.88 1.48,0.86 1.48,3.1 0,2.48 -1.8,3.42000001 -1.68,0.86 -4.7,0.86 h -0.16 V 5.9000002 h 2.5 v 0.38 h -7.7 v -0.38 h 1.3 v -13.24 h -1.3 z m 5.2,0.38 v 7.50000001 h 0.42 q 1.2,0 1.66,-0.82 0.46,-0.82000001 0.46,-2.66000001 v -0.96 q 0,-1.7 -0.44,-2.38 -0.42,-0.68 -1.56,-0.68 z" /><path
     id="path105"
     d="m -43.842502,6.4800002 q -0.86,0 -1.3,-0.5 -0.42,-0.52 -0.42,-1.24 0,-0.74 0.44,-1.24 0.46,-0.5 1.28,-0.5 0.82,0 1.3,0.42 0.48,0.42 0.48,1.26 0,0.84 -0.46,1.32 -0.44,0.48 -1.32,0.48 z" /><path
     id="path107"
     d="m -31.056252,6.0600002 q 1,0 1.76,-0.54 0.78,-0.54 0.78,-1.62 0,-1.1 -0.84,-1.68 -0.82,-0.58 -2.36,-1 -1.52,-0.43999999 -2.22,-0.75999999 -0.68,-0.32 -1.3,-0.84 -1.24,-1.04000001 -1.24,-3.22000001 0,-1.78 1.26,-3.06 1.28,-1.28 3.48,-1.28 1.06,0 2.2,0.32 1.16,0.3 1.44,0.3 0.28,0 0.5,-0.4 h 0.22 l 0.14,4.04 h -0.32 q -0.96,-1.74 -2.02,-2.78 -1.04,-1.06 -2.28,-1.06 -1.22,0 -1.9,0.58 -0.68,0.56 -0.68,1.52 0,0.94 0.8,1.46 0.82,0.5 2,0.82 1.18,0.32 1.54,0.44 0.38,0.12 0.92,0.34 0.56,0.2 0.9,0.44 0.36,0.22 0.74,0.58 0.4,0.34000001 0.62,0.76000001 0.54,0.96 0.54,2.27999999 0,2.16 -1.36,3.48 -1.34,1.3 -3.54,1.3 -1.14,0 -2.62,-0.3 -1.46,-0.3 -1.62,-0.3 -0.28,0 -0.54,0.6 h -0.28 l -0.2,-4.76 h 0.34 q 0.88,1.74 2.24,3.04 1.38,1.3 2.9,1.3 z" /><path
     id="path109"
     d="m -13.742502,-7.7199998 0.2,5.02 h -0.38 q -0.88,-2.66 -1.56,-3.62 -0.68,-0.98 -1.96,-0.98 h -0.24 v 13.16 h 1.7 v 0.42 h -7.3 v -0.42 h 1.7 v -13.16 h -0.26 q -1.28,0 -1.98,1.02 -0.7,1 -1.54,3.58 h -0.38 l 0.2,-5.02 z" /><path
     id="path111"
     d="m -6.2600015,5.9000002 -1.46,-4.32 h -3.9600005 l -1.54,4.32 h 1.5 v 0.38 h -3.06 v -0.38 h 0.94 l 5.1000005,-13.74 h 1.64 l 5.04,13.74 h 0.92 v 0.38 h -6.54 v -0.38 z m -3.36,-10 -1.8800005,5.24 h 3.6200005 z" /><path
     id="path113"
     d="m 4.676561,2.6600002 3.48,-10 h -1.56 v -0.38 h 3.06 v 0.38 h -0.94 l -4.82,13.82 h -1.68 l -5.1,-13.82 h -0.92 v -0.38 h 6.54 v 0.38 h -1.42 z" /><path
     id="path115"
     d="m 10.207498,-7.7199998 h 5.98 q 2.78,0 4.16,0.76 1.4,0.74 1.4,2.52 0,2.74 -3.3,3.28 v 0.04 q 4,0.50000001 4,3.48 0,2.18 -1.64,3.06 -1.64,0.86 -4.72,0.86 h -5.88 v -0.38 h 1.3 v -13.24 h -1.3 z m 5.2,6.92000001 V 5.9000002 h 0.94 q 1.1,0 1.54,-0.76 0.44,-0.76 0.44,-2.24 v -1.06 q 0,-1.31999999 -0.54,-1.97999999 -0.54,-0.66 -1.92,-0.66 z m 0,-6.54000001 v 6.16 h 0.52 q 1.04,0 1.44,-0.62 0.42,-0.64 0.42,-1.94 v -0.94 q 0,-1.48 -0.36,-2.06 -0.36,-0.6 -1.38,-0.6 z" /><path
     id="path117"
     d="m 29.875936,-1.1399998 2.84,-6.26 h -2.02 v -0.32 h 3.94 v 0.32 h -1.32 l -3.02,6.68000001 V 5.9000002 h 1.22 v 0.38 h -6.34 v -0.38 h 1.22 v -6.23999999 l -3.4,-7.06000001 h -0.94 v -0.32 h 6.4 v 0.32 h -1.3 z" /><path
     id="path119"
     d="m 44.842186,6.0600002 q 1,0 1.76,-0.54 0.78,-0.54 0.78,-1.62 0,-1.1 -0.84,-1.68 -0.82,-0.58 -2.36,-1 -1.52,-0.43999999 -2.22,-0.75999999 -0.68,-0.32 -1.3,-0.84 -1.24,-1.04000001 -1.24,-3.22000001 0,-1.78 1.26,-3.06 1.28,-1.28 3.48,-1.28 1.06,0 2.2,0.32 1.16,0.3 1.44,0.3 0.28,0 0.5,-0.4 h 0.22 l 0.14,4.04 h -0.32 q -0.96,-1.74 -2.02,-2.78 -1.04,-1.06 -2.28,-1.06 -1.22,0 -1.9,0.58 -0.68,0.56 -0.68,1.52 0,0.94 0.8,1.46 0.82,0.5 2,0.82 1.18,0.32 1.54,0.44 0.38,0.12 0.92,0.34 0.56,0.2 0.9,0.44 0.36,0.22 0.74,0.58 0.4,0.34000001 0.62,0.76000001 0.54,0.96 0.54,2.27999999 0,2.16 -1.36,3.48 -1.34,1.3 -3.54,1.3 -1.14,0 -2.62,-0.3 -1.46,-0.3 -1.62,-0.3 -0.28,0 -0.54,0.6 h -0.28 l -0.2,-4.76 h 0.34 q 0.88,1.74 2.24,3.04 1.38,1.3 2.9,1.3 z" /><path
     id="path121"
     d="m 52.954373,6.4800002 q -0.86,0 -1.3,-0.5 -0.42,-0.52 -0.42,-1.24 0,-0.74 0.44,-1.24 0.46,-0.5 1.28,-0.5 0.82,0 1.3,0.42 0.48,0.42 0.48,1.26 0,0.84 -0.46,1.32 -0.44,0.48 -1.32,0.48 z" /><path
     id="path123"
     d="m 62.206873,-0.79999979 h -1.06 V 5.9000002 h 1.3 v 0.38 h -6.5 v -0.38 h 1.3 v -13.24 h -1.3 v -0.38 h 6.04 q 2.6,0 3.68,0.28 1.1,0.26 1.54,0.64 0.96,0.78 0.96,2.48 0,1.7 -0.84,2.44 -0.84,0.72 -2.56,0.86 v 0.06 q 1.62,0.22 2.26,0.95999999980835 Q 67.666873,0.74000021 67.666873,2.4800002 v 1.06 q 0,1.04 0.1,1.4 0.12,0.36 0.48,0.36 0.36,0 0.56,-0.32 0.22,-0.34 0.4,-1.4 l 0.34,0.04 q -0.22,1.7 -0.78,2.28 -0.54,0.58 -2.18,0.58 -1.64,0 -2.34,-0.76 -0.68,-0.78 -0.68,-2.9 v -1.46 q 0,-1.11999999 -0.3,-1.63999999 -0.28,-0.52 -1.06,-0.52 z m -1.06,-6.54000001 v 6.16 h 0.64 q 1.14,0 1.68,-0.7 0.56,-0.7 0.56,-2.28 v -0.58 q 0,-1.58 -0.54,-2.08 -0.52,-0.52 -1.68,-0.52 z" /><path
     id="path125"
     d="m 72.602811,6.4800002 q -0.86,0 -1.3,-0.5 -0.42,-0.52 -0.42,-1.24 0,-0.74 0.44,-1.24 0.46,-0.5 1.28,-0.5 0.82,0 1.3,0.42 0.48,0.42 0.48,1.26 0,0.84 -0.46,1.32 -0.44,0.48 -1.32,0.48 z" /><path
     id="path127"
     d="M 85.315311,0.10000021 V -1.3799998 q 0,-3.66 -0.36,-4.62 -0.4,-1.1 -1.14,-1.36 -0.42,-0.16 -1.02,-0.16 -0.6,0 -1.04,0.16 -0.42,0.16 -0.7,0.56 -0.28,0.4 -0.46,0.84 -0.16,0.44 -0.26,1.24 -0.12,1.16 -0.12,3.42 v 1.44000001 q 0,2.43999999 0.18,3.47999999 0.2,1.02 0.48,1.46 0.62,0.98 1.92,0.98 1.58,0 2.04,-1.32 0.48,-1.34 0.48,-4.63999999 z m -2.56,6.37999999 q -3.34,0 -5,-1.8 -1.64,-1.82 -1.64,-5.23999999 0,-3.44000001 1.76,-5.40000001 1.78,-1.98 5.02,-1.98 3.24,0 4.88,1.88 1.66,1.86 1.66,5.30000001 0,3.43999999 -1.68,5.33999999 -1.66,1.9 -5,1.9 z" /><path
     id="path129"
     d="m 92.290311,6.4800002 q -0.86,0 -1.3,-0.5 -0.42,-0.52 -0.42,-1.24 0,-0.74 0.44,-1.24 0.46,-0.5 1.28,-0.5 0.82,0 1.3,0.42 0.48,0.42 0.48,1.26 0,0.84 -0.46,1.32 -0.44,0.48 -1.32,0.48 z" /></g>
</g>
<g
   id="4bd2-093a"
   transform="matrix(0.47,0,0,0.17,473.42801,160.983)">
<g
   id="g86">
		<g
   id="Layer_1"
   transform="translate(-520.1,279.75)">
<path
   id="polygon11"
   d="m -59.15,-41.75 118.3,64.1 -2.5,19.4 -115.8,-59.8 z"
   style="opacity:1;fill:#000000;fill-rule:nonzero;stroke:none;stroke-width:1;stroke-linecap:butt;stroke-linejoin:miter;stroke-miterlimit:4;stroke-dasharray:none;stroke-dashoffset:0" />
</g>
		<g
   id="g16"
   transform="translate(-525.4,332.7)">
<path
   id="polygon14"
   d="m -42.45,-37 84.9,53.4 V 37 l -84.9,-48.2 z"
   style="opacity:1;fill:#000000;fill-rule:nonzero;stroke:none;stroke-width:1;stroke-linecap:butt;stroke-linejoin:miter;stroke-miterlimit:4;stroke-dasharray:none;stroke-dashoffset:0" />
</g>
		<g
   id="g20"
   transform="translate(-517.95,178.2)">
<path
   id="path18"
   d="m 1168.7,621.8 171.1,81.7 c 27.7,184.6 78.6,348.3 155,489 47.8,13.3 96.5,20.6 145.9,21.2 -70.8,-292.4 -86.8,-591.6 -83.5,-891.4 l -26.9,13.5 9.9,-353.3 -134.5,80.7 -7.1,338.4 -82.1,41.8 c 2.1,56.5 5.8,111.4 11.4,164.7 L 1116,506.4 c -108.1,36.4 -208.5,38.9 -281.1,14.2 29.7,155 71.8,276.8 124.1,371.6 26.9,48.7 64.8,90.4 110.3,122.2 84.2,58.8 173.6,107.4 271.1,140.6 C 1216,965.5 1140.6,757.3 1118.1,529 l 211.7,100.5 v -2.2 c 2.2,19.4 4.6,38.6 7.3,57.6 L 1168.7,598 Z"
   transform="translate(-1237.8,-598.1)"
   style="opacity:1;fill:#000000;fill-rule:nonzero;stroke:none;stroke-width:1;stroke-linecap:butt;stroke-linejoin:miter;stroke-miterlimit:4;stroke-dasharray:none;stroke-dashoffset:0" />
</g>
		<g
   id="g24"
   transform="translate(-114.8,417.5)">
<path
   id="path22"
   d="m 1604.5,458.2 20.5,13.5 c 8.3,241.2 25.9,489.7 52.4,744.9 h -9.2 c -30.3,-222 -50,-480.2 -63.7,-758.4 z"
   transform="translate(-1640.95,-837.4)"
   style="opacity:1;fill:#000000;fill-rule:nonzero;stroke:none;stroke-width:1;stroke-linecap:butt;stroke-linejoin:miter;stroke-miterlimit:4;stroke-dasharray:none;stroke-dashoffset:0" />
</g>
		<g
   id="g28"
   transform="translate(-63.35,433.1)">
<path
   id="path26"
   d="m 1669,488.7 24.1,17 c 4.6,263.7 11.3,508.6 22.7,711.6 l -8.5,-0.7 C 1694,1012.9 1681.3,760.3 1669,488.7 Z"
   transform="translate(-1692.4,-853)"
   style="opacity:1;fill:#000000;fill-rule:nonzero;stroke:none;stroke-width:1;stroke-linecap:butt;stroke-linejoin:miter;stroke-miterlimit:4;stroke-dasharray:none;stroke-dashoffset:0" />
</g>
		<g
   id="g32"
   transform="translate(-16.35,451.05)">
<path
   id="path30"
   d="m 1726.1,522.6 26.6,13.3 -2.7,683.4 h -9 c -0.3,-254.5 -4.5,-490.5 -14.9,-696.7 z"
   transform="translate(-1739.4,-870.95)"
   style="opacity:1;fill:#000000;fill-rule:nonzero;stroke:none;stroke-width:1;stroke-linecap:butt;stroke-linejoin:miter;stroke-miterlimit:4;stroke-dasharray:none;stroke-dashoffset:0" />
</g>
		<g
   id="g36"
   transform="translate(28.25,464.9)">
<path
   id="path34"
   d="m 1779.2,549.7 21.8,17 -22.8,653.2 H 1767 c 12.2,-203.5 15,-430.1 12.2,-670.2 z"
   transform="translate(-1784,-884.8)"
   style="opacity:1;fill:#000000;fill-rule:nonzero;stroke:none;stroke-width:1;stroke-linecap:butt;stroke-linejoin:miter;stroke-miterlimit:4;stroke-dasharray:none;stroke-dashoffset:0" />
</g>
		<g
   id="g40"
   transform="translate(123.15,-1.3)">
<path
   id="path38"
   d="m 2025.2,510.8 6.3,-157.5 -148.2,-135.9 -67.4,36.1 -4.8,-370.7 -40.4,-43.5 -3.2,-104.6 -77,-114.7 -60.5,43.5 -8.5,116.3 -30.8,22.3 -13.8,196.9 60.5,48.3 v 317 l 48.9,29.7 10.1,-672.3 -7.4,9.6 -8.5,-0.5 4.2,-88.7 75.4,116.8 -1.1,98.8 32.9,32.4 3.7,556.5 86.6,44.6 3.2,-239 124.3,112.6 -3.2,151.9 c -52.5,16.8 -108.5,33.4 -167,49.8 2.1,224.7 -11.4,442 -42.5,650.7 71.4,-0.4 140.7,-7 206,-24.8 114.9,-229.7 166,-478.3 177.9,-738.4 -46.5,19.3 -98.9,38.2 -155.7,56.8 z"
   transform="translate(-1878.9,-418.6)"
   style="opacity:1;fill:#000000;fill-rule:nonzero;stroke:none;stroke-width:1;stroke-linecap:butt;stroke-linejoin:miter;stroke-miterlimit:4;stroke-dasharray:none;stroke-dashoffset:0" />
</g>
		<g
   id="g44"
   transform="translate(381.95,453.25)">
<path
   id="path42"
   d="m 2219.5,560.9 20.7,11.7 c -23.7,253.3 -96,447.9 -192.8,612.8 l -12.2,-2.1 C 2139,991 2200.7,783.6 2219.5,560.9 Z"
   transform="translate(-2137.7,-873.15)"
   style="opacity:1;fill:#000000;fill-rule:nonzero;stroke:none;stroke-width:1;stroke-linecap:butt;stroke-linejoin:miter;stroke-miterlimit:4;stroke-dasharray:none;stroke-dashoffset:0" />
</g>
		<g
   id="g48"
   transform="translate(435.25,463)">
<path
   id="path46"
   d="m 2279.3,592.4 18.1,11.7 c -23,205.2 -91.7,394.6 -203.2,569.3 l -9.6,-5.7 C 2240.4,908.4 2256.4,753 2279.3,592.4 Z"
   transform="translate(-2191,-882.9)"
   style="opacity:1;fill:#000000;fill-rule:nonzero;stroke:none;stroke-width:1;stroke-linecap:butt;stroke-linejoin:miter;stroke-miterlimit:4;stroke-dasharray:none;stroke-dashoffset:0" />
</g>
		<g
   id="g52"
   transform="translate(485.15,468.95)">
<path
   id="path50"
   d="m 2333.8,618.9 18.1,10.3 c -30.5,195.4 -100.7,371.6 -208.5,529.6 l -13.5,-3.2 c 102.7,-154.8 179.9,-327.4 203.9,-536.7 z"
   transform="translate(-2240.9,-888.85)"
   style="opacity:1;fill:#000000;fill-rule:nonzero;stroke:none;stroke-width:1;stroke-linecap:butt;stroke-linejoin:miter;stroke-miterlimit:4;stroke-dasharray:none;stroke-dashoffset:0" />
</g>
		<g
   id="g56"
   transform="translate(527.9,473.4)">
<path
   id="path54"
   d="m 2379.8,640.5 17.3,7.1 c -32.8,181.6 -103.5,347.9 -213.1,498.5 l -13.8,-3.2 c 100.6,-128.2 183,-323.6 209.6,-502.4 z"
   transform="translate(-2283.65,-893.3)"
   style="opacity:1;fill:#000000;fill-rule:nonzero;stroke:none;stroke-width:1;stroke-linecap:butt;stroke-linejoin:miter;stroke-miterlimit:4;stroke-dasharray:none;stroke-dashoffset:0" />
</g>
		<g
   id="g60"
   transform="translate(566.6,472.45)">
<path
   id="path58"
   d="m 2417.7,654.3 13.5,8.1 c -34.7,161.8 -106.6,331.7 -210.3,468 h -7.4 c 97.1,-130.2 165.2,-288.9 204.2,-476.1 z"
   transform="translate(-2322.35,-892.35)"
   style="opacity:1;fill:#000000;fill-rule:nonzero;stroke:none;stroke-width:1;stroke-linecap:butt;stroke-linejoin:miter;stroke-miterlimit:4;stroke-dasharray:none;stroke-dashoffset:0" />
</g>
		<g
   id="g64"
   transform="translate(603.1,466.9)">
<path
   id="path62"
   d="m 2453.1,662.5 12.7,8.9 C 2427,840.2 2357,985.1 2262.2,1111.1 l -10.3,-0.7 C 2343.6,992.1 2410,842.1 2453.1,662.5 Z"
   transform="translate(-2358.85,-886.8)"
   style="opacity:1;fill:#000000;fill-rule:nonzero;stroke:none;stroke-width:1;stroke-linecap:butt;stroke-linejoin:miter;stroke-miterlimit:4;stroke-dasharray:none;stroke-dashoffset:0" />
</g>
		<g
   id="g68"
   transform="translate(707.71,146.35)">
<path
   id="path66"
   d="m 2295.9,1089.8 20.2,-5.3 c 97.9,-119.1 162.4,-289 209.2,-485.9 L 2451,579 c 31.1,-162.5 32.5,-333.4 4.8,-512.4 66.7,98.9 133.1,188 199.1,261.8 1.4,251.9 -75.6,468.2 -197.5,664.3 l 32.4,-24.4 c 121.2,-196.9 193,-409.8 186.4,-647.9 -63.7,-69.9 -139.3,-168.5 -219.3,-277.7 -69.6,1.9 -138.4,15.8 -206.6,41.4 14.8,144.1 16.1,283.8 3.7,419 85.1,53.4 167.5,93.8 245.3,113.1 -34,177.5 -106.4,332.7 -203.4,473.6 z"
   transform="translate(-2463.46,-566.25)"
   style="opacity:1;fill:#000000;fill-rule:nonzero;stroke:none;stroke-width:1;stroke-linecap:butt;stroke-linejoin:miter;stroke-miterlimit:4;stroke-dasharray:none;stroke-dashoffset:0" />
</g>
		<g
   id="g72"
   transform="translate(814.55,-142.95)">
<path
   id="polygon70"
   d="m -59.5,-80.35 119,144.4 v 16.3 l -119,-136.3 z"
   style="opacity:1;fill:#000000;fill-rule:nonzero;stroke:none;stroke-width:1;stroke-linecap:butt;stroke-linejoin:miter;stroke-miterlimit:4;stroke-dasharray:none;stroke-dashoffset:0" />
</g>
		<g
   id="g76"
   transform="translate(808,-75.7)">
<path
   id="polygon74"
   d="M -48.65,-61.6 48.65,45.3 V 61.6 L -48.65,-40.3 Z"
   style="opacity:1;fill:#000000;fill-rule:nonzero;stroke:none;stroke-width:1;stroke-linecap:butt;stroke-linejoin:miter;stroke-miterlimit:4;stroke-dasharray:none;stroke-dashoffset:0" />
</g>
		<g
   id="g80"
   transform="translate(786.95,-18.15)">
<path
   id="polygon78"
   d="m -27.6,-34.15 55.2,55.2 v 13.1 l -55.2,-43.2 z"
   style="opacity:1;fill:#000000;fill-rule:nonzero;stroke:none;stroke-width:1;stroke-linecap:butt;stroke-linejoin:miter;stroke-miterlimit:4;stroke-dasharray:none;stroke-dashoffset:0" />
</g>
		<g
   id="g84"
   transform="translate(763.2,30.5)">
<path
   id="polygon82"
   d="M -8.15,-19.1 8.15,3.6 V 19.1 L -8.15,2.9 Z"
   style="opacity:1;fill:#000000;fill-rule:nonzero;stroke:none;stroke-width:1;stroke-linecap:butt;stroke-linejoin:miter;stroke-miterlimit:4;stroke-dasharray:none;stroke-dashoffset:0" />
</g>
</g>
</g>
</svg>